<?xml version="1.0" standalone="no"?>
<!DOCTYPE svg PUBLIC "-//W3C//DTD SVG 20010904//EN"
 "http://www.w3.org/TR/2001/REC-SVG-20010904/DTD/svg10.dtd">
<svg version="1.0" xmlns="http://www.w3.org/2000/svg"
 width="80.000000pt" height="80.000000pt" viewBox="0 0 80.000000 80.000000"
 preserveAspectRatio="xMidYMid meet">
<metadata>
Created by potrace 1.16, written by Peter Selinger 2001-2019
</metadata>
<g transform="translate(0.000000,80.000000) scale(0.009206,-0.009206)"
fill="#000000" stroke="none">
<path d="M4204 7430 c-94 -4 -187 -10 -205 -14 -19 -3 -70 -10 -114 -16 -118
-15 -348 -74 -430 -110 -11 -5 -40 -16 -65 -24 -73 -23 -276 -124 -385 -190
-163 -100 -289 -200 -440 -350 -250 -248 -421 -508 -542 -826 -47 -124 -99
-309 -114 -405 -58 -389 -51 -615 33 -970 87 -368 294 -752 549 -1020 32 -33
66 -69 76 -80 16 -18 161 -148 188 -168 168 -128 319 -221 489 -301 65 -31
121 -56 124 -56 4 0 26 -7 49 -16 73 -28 55 -41 -64 -48 -60 -4 -175 -11 -258
-16 -82 -5 -226 -14 -320 -20 -93 -6 -237 -15 -320 -20 -82 -5 -233 -14 -335
-21 -102 -6 -210 -14 -240 -19 -30 -4 553 -7 1295 -6 1332 2 1352 2 1480 23
143 24 288 59 380 93 33 12 86 30 118 40 74 25 309 142 413 207 147 91 277
196 419 338 254 253 423 512 542 829 226 604 195 1259 -87 1831 -121 245 -254
430 -456 631 -137 138 -298 265 -449 356 -112 67 -294 156 -385 188 -19 7 -44
16 -55 20 -11 5 -28 11 -37 14 -62 20 17 28 542 56 107 6 272 15 365 20 94 5
262 14 375 20 436 23 317 27 -775 29 -616 1 -1136 3 -1155 5 -19 2 -112 0
-206 -4z m396 -168 c203 -39 344 -87 525 -179 106 -53 283 -170 375 -247 71
-59 224 -215 280 -285 41 -52 180 -248 180 -254 0 -2 18 -37 41 -78 60 -109
123 -252 162 -370 31 -93 44 -139 77 -284 15 -66 39 -263 45 -380 23 -393 -88
-876 -279 -1215 -25 -45 -46 -84 -46 -87 0 -3 -30 -49 -67 -102 -328 -474
-778 -772 -1308 -868 -143 -25 -481 -25 -620 0 -278 52 -523 151 -747 303
-205 140 -401 335 -550 549 -145 208 -274 493 -329 725 -33 142 -38 163 -48
230 -39 243 -39 497 0 740 10 65 14 85 44 215 36 154 120 374 197 515 70 128
77 139 135 223 201 290 458 518 750 666 206 104 339 149 558 187 113 20 156
22 325 19 140 -2 224 -9 300 -23z"/>
<path d="M1463 2102 c-10 -6 -13 -103 -13 -410 -1 -222 2 -407 5 -412 4 -6
149 -10 381 -10 l375 0 110 108 109 107 0 224 0 224 -85 86 -84 86 -393 3
c-216 1 -399 -2 -405 -6z m696 -167 l41 -45 0 -193 0 -193 -53 -52 -53 -52
-210 2 -209 3 -3 265 c-1 146 0 275 3 288 5 22 6 22 224 22 l218 0 42 -45z"/>
<path d="M2606 2041 l-71 -70 0 -248 c0 -136 2 -257 5 -269 3 -11 44 -57 92
-102 l88 -82 342 2 343 3 3 53 c3 48 1 53 -23 62 -15 6 -135 10 -278 10 l-252
0 -43 38 c-39 33 -44 42 -49 94 -3 31 -3 68 1 82 l6 26 313 2 312 3 3 52 c3
44 0 53 -18 63 -13 7 -115 10 -309 9 -159 0 -294 2 -300 6 -6 3 -11 33 -11 66
0 54 3 62 36 99 l36 40 277 0 c202 0 280 3 289 12 7 7 12 30 12 53 0 23 -5 46
-12 53 -9 9 -104 12 -366 12 l-354 0 -72 -69z"/>
<path d="M3777 2098 c-9 -7 -32 -58 -51 -113 -19 -55 -58 -165 -86 -245 -126
-352 -153 -436 -147 -453 5 -14 20 -17 90 -17 l85 0 22 63 c43 117 15 107 294
107 184 0 246 -3 254 -13 6 -7 20 -39 33 -72 12 -33 26 -66 32 -72 6 -9 41
-13 108 -13 86 0 98 2 103 18 5 16 -38 151 -104 327 -11 28 -51 142 -91 255
-42 120 -80 212 -91 223 -18 15 -44 17 -227 17 -150 0 -212 -3 -224 -12z m270
-130 c6 -7 22 -47 36 -88 14 -41 44 -124 67 -185 22 -60 38 -115 36 -122 -8
-19 -394 -19 -402 0 -3 8 8 47 24 88 16 41 42 110 57 154 15 44 36 99 46 123
l18 42 54 0 c32 0 59 -5 64 -12z"/>
<path d="M4684 2038 l-74 -71 0 -261 0 -261 92 -87 92 -88 347 0 c282 0 349 3
358 14 8 9 11 78 9 227 l-3 214 -79 5 c-58 4 -83 1 -93 -8 -10 -10 -13 -53
-13 -168 l0 -154 -198 0 -198 0 -42 43 -42 43 0 207 0 207 36 40 36 40 274 0
c260 0 274 1 284 19 14 27 13 84 -2 99 -9 9 -103 12 -361 12 l-349 0 -74 -72z"/>
<path d="M5632 2098 c-9 -9 -12 -96 -12 -331 l0 -318 93 -89 92 -90 290 3 290
2 0 60 0 60 -223 5 -223 5 -45 47 -44 47 0 299 c0 264 -2 301 -16 306 -29 11
-189 7 -202 -6z"/>
<path d="M6533 2036 l-74 -73 3 -260 3 -260 90 -86 90 -86 345 2 345 2 3 52
c2 42 -1 54 -15 61 -24 13 2 12 -288 12 l-255 0 -45 44 -46 43 3 74 3 74 310
3 c232 2 311 5 317 15 11 17 10 79 -2 97 -8 13 -58 16 -317 20 l-308 5 -3 66
c-3 65 -2 67 35 102 l37 37 276 0 c201 0 279 3 288 12 7 7 12 30 12 53 0 23
-5 46 -12 53 -9 9 -104 12 -367 12 l-355 0 -73 -74z"/>
</g>
</svg>
